OpenSim_Sub05_CSStiffKnee_RCS.mot
version=1
nRows=51
nColumns=11
inDegrees=no
endheader
time	Top_Thigh	Med_Thigh	Bot_Thigh	Top_Shank	2nd_Top_Shank	2nd_Bot_Shank	Bot_Shank	BNOx	BNOy	BNOZ
56.24000000	1202.09117399	1285.76241555	780.28618554	1085.26085672	1278.45728659	1017.48160035	1052.92532024	0	0	0
56.25000000	1202.20035392	1284.29809067	685.06795476	1084.89442858	1278.52036121	1017.34622528	1052.46526388	0	0	0
56.26000000	1202.20065571	1283.50450877	608.98789089	1084.72117169	1278.68637587	1017.43667825	1052.37116863	0	0	0
56.27000000	1202.06880468	1283.70054303	561.96063827	1084.87198982	1278.92122277	1017.81870567	1052.76711070	0	0	0
56.28000000	1201.78664069	1285.17175606	552.90277528	1085.46500469	1279.19209161	1018.54905780	1053.76106659	0	0	0
56.29000000	1201.38880436	1287.85982504	580.42723160	1086.48638125	1279.47956748	1019.59161205	1055.29480514	0	0	0
56.30000000	1200.94108590	1291.50355321	637.06833699	1087.84443703	1279.77213794	1020.85545582	1057.21204163	0	0	0
56.31000000	1200.50967812	1295.83912167	715.28185624	1089.44648338	1280.05839274	1022.24896838	1059.35522401	0	0	0
56.32000000	1200.16077382	1300.60271153	807.52355418	1091.19983167	1280.32692160	1023.68052897	1061.56680023	0	0	0
56.33000000	1199.96056582	1305.53050392	906.24919561	1093.01179326	1280.56631425	1025.05851685	1063.68921823	0	0	0
56.34000000	1199.97524692	1310.35867994	1003.91454533	1094.78967951	1280.76516042	1026.29131128	1065.56492597	0	0	0
56.35000000	1200.27100994	1314.82342071	1092.97536816	1096.44080179	1280.91204984	1027.28729151	1067.03637139	0	0	0
56.36000000	1200.91404769	1318.66090734	1165.88742890	1097.87247144	1280.99557224	1027.95483679	1067.94600244	0	0	0
56.37000000	1201.94622006	1321.64426328	1216.46525608	1099.00532464	1281.00733417	1028.22265416	1068.17216550	0	0	0
56.38000000	1203.27777558	1323.74642487	1245.87263115	1099.83206844	1280.95525948	1028.12939910	1067.78737366	0	0	0
56.39000000	1204.77466953	1325.00757466	1257.74669559	1100.36966506	1280.85276355	1027.75072980	1066.92948597	0	0	0
56.40000000	1206.30282381	1325.46794586	1255.72645475	1100.63509498	1280.71326591	1027.16233230	1065.73641075	0	0	0
56.41000000	1207.72816032	1325.16777167	1243.45091399	1100.64533871	1280.55018605	1026.43989268	1064.34605630	0	0	0
56.42000000	1208.91660096	1324.14728532	1224.55907865	1100.41737674	1280.37694350	1025.65909700	1062.89633093	0	0	0
56.43000000	1209.73406763	1322.44672002	1202.68995409	1099.96818955	1280.20695778	1024.89563131	1061.52514295	0	0	0
56.44000000	1210.04648223	1320.10630898	1181.48254566	1099.31475765	1280.05364840	1024.22518168	1060.37040066	0	0	0
56.45000000	1209.73172817	1317.17489099	1164.43924146	1098.47487677	1279.93004983	1023.71928816	1059.56267792	0	0	0
56.46000000	1208.84666834	1313.83006960	1153.01823085	1097.47854119	1279.84343494	1023.38745425	1059.12280348	0	0	0
56.47000000	1207.58594444	1310.34857176	1147.10407490	1096.36513563	1279.79664138	1023.19142758	1058.98712409	0	0	0
56.48000000	1206.14774229	1307.00967423	1146.54085552	1095.17428637	1279.79239267	1023.09172733	1059.08981331	0	0	0
56.49000000	1204.73024772	1304.09265375	1151.17265461	1093.94561970	1279.83341234	1023.04887268	1059.36504473	0	0	0
56.50000000	1203.53164655	1301.87678706	1160.84355407	1092.71876190	1279.92242393	1023.02338283	1059.74699191	0	0	0
56.51000000	1202.74645228	1300.63376117	1175.33831963	1091.53276703	1280.06152721	1022.97619813	1060.16965314	0	0	0
56.52000000	1202.42641558	1300.34021141	1192.13580047	1090.40444460	1280.22857275	1022.88463232	1060.56021192	0	0	0
56.53000000	1202.43783321	1300.58949061	1205.71937868	1089.32170765	1280.36991063	1022.74726873	1060.83699914	0	0	0
56.54000000	1202.63460777	1300.94933618	1210.37224423	1088.27053798	1280.42978566	1022.56411214	1060.91775403	0	0	0
56.55000000	1202.87064181	1300.98748553	1200.37758707	1087.23691743	1280.35244266	1022.33516737	1060.72021584	0	0	0
56.56000000	1202.99983791	1300.27167606	1170.01859719	1086.20682781	1280.08212648	1022.06043921	1060.16212381	0	0	0
56.57000000	1202.89471597	1298.43886912	1114.79645614	1085.16985926	1279.57591875	1021.74183741	1059.18061567	0	0	0
56.58000000	1202.56538965	1295.63763421	1039.21406469	1084.14226952	1278.88577338	1021.39535034	1057.85619597	0	0	0
56.59000000	1202.08364249	1292.24584509	951.80892079	1083.15226886	1278.10616627	1021.04327644	1056.33362671	0	0	0
56.60000000	1201.52154896	1288.64245717	861.13755349	1082.22812391	1277.33177390	1020.70794394	1054.75797300	0	0	0
56.61000000	1200.95118350	1285.20642584	775.75649187	1081.39810130	1276.65727275	1020.41168106	1053.27429992	0	0	0
56.62000000	1200.44462057	1282.31670652	704.22226498	1080.69046768	1276.17733930	1020.17681602	1052.02767259	0	0	0
56.63000000	1200.07393464	1280.35225460	655.09140189	1080.13348969	1275.98665003	1020.02567704	1051.16315610	0	0	0
56.64000000	1199.90402092	1279.65354992	636.03215082	1079.75229056	1276.16908364	1019.97818085	1050.81131919	0	0	0
56.65000000	1199.92565913	1280.16386546	645.54249036	1079.53954230	1276.69704659	1020.02934874	1050.95307568	0	0	0
56.66000000	1200.08590479	1281.59214343	676.71043208	1079.46877246	1277.47718274	1020.15951510	1051.48105104	0	0	0
56.67000000	1200.33124829	1283.64429739	722.55406458	1079.51326110	1278.41528594	1020.34882445	1052.28672960	0	0	0
56.68000000	1200.60818002	1286.02624086	776.09147644	1079.64628834	1279.41715008	1020.57742133	1053.26159572	0	0	0
56.69000000	1200.86319037	1288.44388740	830.34075626	1079.84113426	1280.38856902	1020.82545027	1054.29713374	0	0	0
56.70000000	1201.04309307	1290.60463774	878.35669561	1080.07112550	1281.23572813	1021.07310700	1055.28520761	0	0	0
56.71000000	1201.11971801	1292.33095747	916.03381006	1080.31319099	1281.89510346	1021.30454795	1056.14705169	0	0	0
56.72000000	1201.10729926	1293.64035515	944.08014447	1080.55036571	1282.35451581	1021.51064326	1056.85368520	0	0	0
56.73000000	1201.02417838	1294.56923221	963.67000761	1080.76627615	1282.60675950	1021.68291336	1057.38094979	0	0	0
56.74000000	1200.88869691	1295.15399007	975.97770824	1080.94454876	1282.64462887	1021.81287869	1057.70468709	0	0	0
